# xmcd CD database file generated by Grip 2.95
# 
# Track frame offsets:
#       150
#       38160
#       86182
#       124365
#       147895
#       179852
#       215040
#       239075
# 
# Disc length: 3348 seconds
# 
# Revision: 3
# Processed by: cddbd v1.4b41PL1 Copyright (c) Steve Scherf et al.
# Submitted via: Grip 2.95
# 
DISCID=840d1208
DTITLE=ANDRZEJ JAGOZINSKI TRIO - CHOPIN PALETTES D'UNE VIE
DYEAR=1900
DGENRE=
TTITLE0=noc op9n3
TTITLE1=etd op25n10
TTITLE2=etd op25n2
TTITLE3=pre op28n6
TTITLE4=pol op49n2
TTITLE5=maz op67n2
TTITLE6=noc op9n3 (2)
TTITLE7=etd op25n9
EXTD=
EXTT0=
EXTT1=
EXTT2=
EXTT3=
EXTT4=
EXTT5=
EXTT6=
EXTT7=
PLAYORDER=
